# xmcd CD database file
#
# Track frame offsets:
#	150
#	19120
#	44565
#	70010
#	83487
#	99727
#	115092
#	148940
#	172987
#	200885
#	219980
#	238400
#	262805
#	281355
#	302655
#
# Disc length: 4231 seconds
#
# Revision: 0
# Processed by: cddbd v1.5.2PL0 Copyright (c) Steve Scherf et al.
# Submitted via: CDex 1.51
#
DISCID=d510850f
DTITLE=Dave Tull - I Just Want To Get Paid
DYEAR=1900
DGENRE=Jazz
TTITLE0=Take One Look At Me
TTITLE1=I Just Want TO Get Paid
TTITLE2=Where Is All the Rain?
TTITLE3=The Airplane Song
TTITLE4=She Loves Me!
TTITLE5=How Do You Know You're In Love
TTITLE6=Every Other Day I Have the Blues
TTITLE7=If You Hadn't Seen Me There
TTITLE8=You're Talkin' Too Loud
TTITLE9=Quiet Corner
TTITLE10=The Minutes Pass Like Hours When You Sing
TTITLE11=I Just Decided To Stay
TTITLE12=The Second Chance
TTITLE13=I Got To Get Home So I Can See My Children
TTITLE14=bonus
EXTD=
EXTT0=
EXTT1=
EXTT2=
EXTT3=
EXTT4=
EXTT5=
EXTT6=
EXTT7=
EXTT8=
EXTT9=
EXTT10=
EXTT11=
EXTT12=
EXTT13=
EXTT14=
PLAYORDER=
